<?xml version="1.0" standalone="no"?>
<!DOCTYPE svg PUBLIC "-//W3C//DTD SVG 20010904//EN"
 "http://www.w3.org/TR/2001/REC-SVG-20010904/DTD/svg10.dtd">
<svg version="1.0" xmlns="http://www.w3.org/2000/svg"
 width="128.000000pt" height="128.000000pt" viewBox="0 0 128.000000 128.000000"
 preserveAspectRatio="xMidYMid meet">
<metadata>
Created by potrace 1.14, written by Peter Selinger 2001-2017
</metadata>
<g transform="translate(0.000000,128.000000) scale(0.100000,-0.100000)"
fill="#000000" stroke="none">
<path d="M296 1255 c-4 -14 -13 -25 -21 -25 -8 0 -15 -3 -15 -7 0 -5 0 -268 0
-587 -1 -571 -1 -579 20 -593 11 -8 20 -21 20 -29 0 -12 50 -14 339 -14 l339
0 6 24 c3 14 13 26 21 28 14 3 16 68 16 583 -1 319 -1 583 -1 588 0 4 -7 7
-15 7 -8 0 -17 11 -21 25 l-6 25 -338 0 -338 0 -6 -25z m544 -241 l0 -103 35
-17 c19 -9 35 -20 35 -24 0 -7 -90 -1 -99 6 -3 2 -7 50 -11 107 -4 56 -10 109
-14 119 -5 11 -2 17 11 20 39 9 43 0 43 -108z m-320 96 c13 -9 13 -11 0 -20
-8 -5 -27 -10 -42 -10 -35 0 -48 -25 -48 -94 0 -60 4 -66 64 -81 62 -16 59
-37 -5 -33 -48 3 -56 6 -77 38 -21 31 -23 43 -19 100 4 54 9 68 32 87 27 24
69 30 95 13z m180 -77 c17 -22 20 -38 18 -92 l-3 -66 -57 -3 c-53 -3 -58 -1
-63 21 -9 34 12 107 30 107 17 0 20 -26 5 -35 -16 -10 -12 -52 6 -59 46 -18
54 5 32 89 -9 32 -16 44 -26 40 -17 -6 -34 3 -27 16 13 20 63 9 85 -18z m51
-303 l2 -85 -69 4 c-38 3 -79 5 -91 5 -12 1 -19 3 -16 6 2 3 39 5 81 5 l77 0
3 79 c2 43 5 77 7 75 2 -3 5 -42 6 -89z m-200 -93 l-1 -166 63 -4 c34 -2 8 -3
-58 -3 -66 0 -97 1 -70 3 l51 4 1 89 1 90 -95 0 c-53 0 -93 3 -89 8 4 4 47 7
94 7 l87 0 3 74 c5 130 13 68 13 -102z m342 16 c-24 -2 -62 -2 -85 0 -24 2 -5
4 42 4 47 0 66 -2 43 -4z m-143 -100 c0 -57 -3 -74 -11 -66 -11 11 -4 143 7
143 2 0 4 -35 4 -77z m-320 -93 c0 -5 -21 -10 -47 -9 -36 0 -43 3 -28 9 28 12
75 12 75 0z m303 3 c-7 -2 -19 -2 -25 0 -7 3 -2 5 12 5 14 0 19 -2 13 -5z
m187 -20 c-1 -5 -6 -48 -13 -98 -7 -49 -9 -110 -6 -135 4 -25 8 -60 8 -77 l1
-33 -70 0 -70 0 1 83 c1 45 -2 124 -6 175 l-7 92 81 0 c44 0 81 -3 81 -7z
m-400 -278 l0 -85 -80 0 -80 0 0 85 0 85 80 0 80 0 0 -85z m200 31 c0 -29 3
-68 6 -85 l7 -31 -87 0 -86 0 0 78 c0 43 3 82 7 85 3 4 39 7 80 7 l73 0 0 -54z"/>
<path d="M849 383 c-20 -5 -32 -40 -16 -46 24 -8 57 6 57 23 0 20 -16 28 -41
23z"/>
<path d="M790 272 c0 -16 34 -32 68 -32 19 0 29 5 29 15 0 9 -10 15 -26 15
-14 0 -36 3 -48 6 -14 4 -23 2 -23 -4z"/>
<path d="M800 177 c0 -37 62 -51 79 -18 14 25 5 31 -41 31 -24 0 -38 -5 -38
-13z"/>
</g>
</svg>
